<svg xmlns="http://www.w3.org/2000/svg" viewBox="0 0 64 64">
  <defs>
    <linearGradient id="fire" x1="0" y1="0" x2="0" y2="1">
      <stop offset="0" stop-color="#ffd166"/>
      <stop offset=".5" stop-color="#ff9418"/>
      <stop offset="1" stop-color="#ff4d21"/>
    </linearGradient>
  </defs>
  <rect width="64" height="64" rx="14" fill="#090605"/>
  <path fill="url(#fire)" d="M35 7c3 13-7 17-3 27 3 7 9 6 11 0 7 8 10 16 8 23-3 9-11 13-20 12-12-1-19-9-18-19 1-11 9-18 16-26 4-5 6-10 6-17Z" transform="translate(0 -6)"/>
  <path fill="#fff0c7" d="M31 34c2 7-4 10-3 16 1 5 5 7 9 5 3-2 4-5 3-9 4 4 6 9 4 13-2 5-7 8-13 7-7-1-11-6-10-12 1-7 6-11 10-20Z" transform="translate(0 -6)"/>
</svg>
